<?xml version="1.0" encoding="UTF-8" standalone="no"?>
<!DOCTYPE svg PUBLIC "-//W3C//DTD SVG 1.1//EN" "http://www.w3.org/Graphics/SVG/1.1/DTD/svg11.dtd">
<svg width="100%" height="100%" viewBox="0 0 392 680" version="1.1" xmlns="http://www.w3.org/2000/svg" xmlns:xlink="http://www.w3.org/1999/xlink" xml:space="preserve" xmlns:serif="http://www.serif.com/" style="fill-rule:evenodd;clip-rule:evenodd;stroke-linejoin:round;stroke-miterlimit:2;">
    <g transform="matrix(1,0,0,1,-487.82,-1050.49)">
        <g transform="matrix(3.31175,0,0,3.31175,-1624.45,-117.577)">
            <g transform="matrix(0.283698,0,0,0.283698,430.119,-17.2908)">
                <path d="M939.227,1359.79C940.011,1358.45 940.401,1361.63 940.401,1361.63C940.401,1361.63 943.533,1453.33 943.85,1456.7C944.166,1460.08 941.299,1468.7 957.004,1443.93C980.151,1407.42 964.749,1437.68 964.749,1437.68C964.749,1437.68 949.993,1468.56 947.463,1472.35C944.933,1476.15 945.282,1480.54 945.282,1480.54L946.435,1592.86C946.415,1598.83 947.87,1595.49 950.325,1592.49C955.106,1586.65 961.219,1575.01 995.514,1541.31C1087.28,1451.14 1034.76,1509.12 1006.71,1539.01C956.234,1594.96 946.767,1614.57 947.588,1637.49L950.553,1712.1C950.759,1716.04 950.792,1719.22 953.846,1714.4C974.173,1688.82 1004.74,1666.52 1030.26,1651C1030.42,1651.36 1113.42,1604.79 1069.53,1633.34C1044.57,1649.58 1018.5,1670.24 999.388,1686.82C963.347,1718.08 949.539,1738.88 962.981,1739.17C975.095,1739.43 999.041,1751.85 1011.4,1768.33C1012.67,1770.37 1014.75,1770.48 1017.56,1768.92C1026.87,1764.2 1036.2,1759.65 1045.72,1756.27C1050.24,1754.67 1050.88,1756.74 1047.16,1758.97L1022.45,1775.33C1019.92,1776.74 1019.35,1778.49 1020.6,1780.55L1030.16,1803.14C1030.68,1805.06 1032,1806.48 1034.94,1804.92C1047.08,1798.33 1058.24,1792.24 1073.83,1781.18C1085.44,1774.56 1124.99,1723.95 1083.43,1721.29C1051.6,1719.25 1042.29,1728.85 1038.48,1713.15C1034.28,1695.8 1046.79,1695.03 1068.51,1677.74C1080.6,1668.1 1122.64,1644.5 1132.12,1629.69C1139.57,1618.04 1164.98,1577.03 1133.86,1569.95C1102.73,1562.87 1074.82,1591.05 1049.85,1596.34C1027.29,1601.12 1024.45,1599.76 1021.82,1589.06C1019.18,1578.35 1033.18,1562.87 1052.62,1545.91C1072.05,1528.94 1097.25,1502.76 1100.7,1476.08C1104.16,1449.4 1100.19,1413.01 1051.63,1445.77C1037.96,1455 1029.56,1463.72 1026.43,1467.18C1023.3,1470.64 1008.81,1482.83 997.772,1471.96C986.738,1461.09 997.607,1444.62 1004.2,1432.1C1010.78,1419.59 1033.68,1363.35 1007.82,1357.66C996.29,1355.13 993.819,1368.4 981.303,1365.01C968.783,1361.61 976.46,1352.87 959.893,1319.88C951.414,1303 939.663,1304.2 939.663,1304.2L939.443,1304.22C939.443,1304.22 932.008,1303.95 921.978,1319.88C902.31,1351.12 913.087,1361.61 900.568,1365.01C888.051,1368.4 885.581,1355.13 874.052,1357.66C848.192,1363.35 869.935,1418.93 876.523,1431.44C883.11,1443.96 892.004,1462.74 884.098,1471.96C874.018,1483.72 859.068,1470.12 855.442,1467.18C851.685,1464.14 843.968,1456.78 830.573,1447.75C780.441,1413.93 777.713,1449.6 781.166,1476.08C784.277,1499.93 807.058,1521 829.256,1545.91C846.418,1565.16 864.337,1578.9 860.053,1589.06C855.385,1600.13 845.804,1600.16 829.758,1595.22C806.007,1587.9 778.916,1565.55 748.013,1569.95C716.41,1574.45 740.32,1618.04 747.778,1629.69C757.258,1644.5 798.962,1668.1 811.054,1677.74C832.773,1695.03 846.725,1696.78 841.904,1713.97C838.425,1726.38 828.292,1719.25 796.462,1721.29C754.9,1723.95 794.454,1774.56 806.068,1781.18C821.653,1792.24 832.027,1798.46 844.165,1805.06C847.105,1806.62 848.421,1805.19 848.944,1803.27C851.034,1796.72 853.225,1790.08 858.507,1780.69C859.751,1778.62 859.185,1776.87 856.652,1775.46L831.946,1759.1C828.223,1756.87 828.868,1754.8 833.379,1756.4C842.906,1759.78 852.238,1764.33 861.543,1769.05C864.35,1770.62 866.439,1770.5 867.699,1768.46C880.063,1751.99 906.775,1739.43 918.889,1739.17C932.331,1738.88 918.523,1718.08 882.483,1686.82C863.37,1670.24 837.301,1649.58 812.343,1633.34C768.449,1604.79 851.454,1651.36 851.607,1651C876.779,1668.27 907.345,1690.59 928.024,1714.4C931.079,1719.22 931.112,1716.04 931.318,1712.1L932.438,1637.63C933.259,1614.7 923.791,1595.09 873.313,1539.14C845.267,1509.26 792.748,1451.27 884.512,1541.44C918.807,1575.15 924.92,1586.78 929.7,1592.62C932.156,1595.63 933.611,1598.96 933.591,1592.99L934.744,1480.67C934.744,1480.67 935.093,1476.28 932.563,1472.49C930.033,1468.69 915.277,1437.81 915.277,1437.81C915.277,1437.81 899.875,1407.55 923.022,1444.06C938.727,1468.83 935.86,1460.21 936.176,1456.84C936.492,1453.46 938.863,1361.62 938.863,1361.62C938.863,1361.62 938.961,1360.6 939.165,1359.93C939.179,1359.89 939.22,1359.81 939.227,1359.79Z" style="fill:rgb(83,205,83);"/>
            </g>
            <g transform="matrix(0.324887,0,0,0.338617,392.53,-119.195)">
                <circle cx="908.392" cy="1859.72" r="4.182" style="fill:rgb(83,205,83);"/>
            </g>
            <g transform="matrix(0.283698,0,0,0.283698,430.119,-17.2908)">
                <path d="M916.787,1917.75C933.082,1920.91 958.41,1919.01 963.099,1917.75C970.991,1915.64 948.507,1928.25 948.507,1951.97C948.507,1972 947.194,2019.3 947.194,2019.3C947.194,2019.3 945.648,2027.46 939.548,2027.46C934.409,2027.46 931.684,2021.66 931.684,2018.79C931.684,2015.92 930.875,1952.22 930.875,1952.22C930.737,1929.1 907.27,1915.91 916.787,1917.75Z" style="fill:rgb(83,205,83);"/>
            </g>
            <g transform="matrix(0.283698,0,0,0.283698,430.119,-17.2908)">
                <path d="M939.276,1755.43C981.493,1755.43 1015.77,1789.77 1015.77,1832.06C1015.77,1874.34 981.493,1908.68 939.276,1908.68C897.059,1908.68 862.784,1874.34 862.784,1832.06C862.784,1789.77 897.059,1755.43 939.276,1755.43ZM943.854,1889.83C948.99,1889.83 953.159,1892.63 953.159,1896.09C953.159,1899.54 948.99,1902.35 943.854,1902.35C938.718,1902.35 934.549,1899.54 934.549,1896.09C934.549,1892.63 938.718,1889.83 943.854,1889.83ZM919.575,1889.84C923.735,1891.43 926.294,1894.86 925.287,1897.49C924.28,1900.12 920.085,1900.97 915.926,1899.37C911.766,1897.78 909.206,1894.35 910.213,1891.72C911.22,1889.09 915.415,1888.25 919.575,1889.84ZM963.819,1883.34C968.465,1880.82 973.659,1881.39 975.409,1884.62C977.159,1887.84 974.808,1892.51 970.161,1895.03C965.515,1897.55 960.322,1896.98 958.571,1893.75C956.821,1890.52 959.173,1885.86 963.819,1883.34ZM896.343,1876.86C899.77,1879.58 901.177,1883.52 899.482,1885.65C897.788,1887.79 893.63,1887.32 890.202,1884.6C886.775,1881.88 885.369,1877.94 887.063,1875.8C888.758,1873.67 892.916,1874.14 896.343,1876.86ZM927.961,1874.35C931.143,1874.35 933.725,1876.56 933.725,1879.29C933.725,1882.02 931.143,1884.23 927.961,1884.23C924.78,1884.23 922.197,1882.02 922.197,1879.29C922.197,1876.56 924.78,1874.35 927.961,1874.35ZM980.831,1872.39C984.086,1869.53 988.411,1869.11 990.484,1871.46C992.557,1873.81 991.597,1878.05 988.343,1880.92C985.089,1883.79 980.764,1884.2 978.691,1881.85C976.618,1879.5 977.577,1875.26 980.831,1872.39ZM957.363,1867.26C962.009,1864.74 967.203,1865.32 968.953,1868.54C970.703,1871.77 968.352,1876.43 963.705,1878.95C959.059,1881.48 953.866,1880.9 952.116,1877.68C950.365,1874.45 952.717,1869.79 957.363,1867.26ZM991.449,1854.85C993.515,1851.03 997.43,1849.15 1000.19,1850.64C1002.94,1852.13 1003.51,1856.44 1001.44,1860.26C999.376,1864.07 995.46,1865.95 992.703,1864.46C989.946,1862.97 989.384,1858.66 991.449,1854.85ZM940.54,1845.75C943.085,1845.75 945.151,1847.82 945.151,1850.37C945.151,1852.91 943.085,1854.98 940.54,1854.98C937.995,1854.98 935.928,1852.91 935.928,1850.37C935.928,1847.82 937.995,1845.75 940.54,1845.75ZM998.433,1832.9C999.776,1827.73 1003.33,1824.17 1006.36,1824.96C1009.4,1825.75 1010.77,1830.59 1009.43,1835.76C1008.09,1840.93 1004.53,1844.48 1001.5,1843.69C998.465,1842.91 997.091,1838.07 998.433,1832.9ZM870.466,1826.27C872.457,1825.94 874.517,1828.28 875.064,1831.51C875.611,1834.73 874.439,1837.63 872.449,1837.97C870.459,1838.3 868.399,1835.96 867.852,1832.73C867.305,1829.51 868.476,1826.61 870.466,1826.27ZM992.269,1812.2C991.456,1807.94 993.296,1804 996.376,1803.41C999.456,1802.83 1002.62,1805.81 1003.43,1810.07C1004.24,1814.33 1002.4,1818.26 999.322,1818.85C996.242,1819.44 993.082,1816.46 992.269,1812.2ZM878.513,1801.01C880.737,1801.48 881.932,1804.75 881.18,1808.31C880.428,1811.86 878.011,1814.37 875.787,1813.9C873.562,1813.43 872.367,1810.16 873.119,1806.6C873.871,1803.05 876.288,1800.54 878.513,1801.01ZM909.866,1791.82C912.411,1791.82 914.477,1793.88 914.477,1796.43C914.477,1798.97 912.411,1801.04 909.866,1801.04C907.321,1801.04 905.254,1798.97 905.254,1796.43C905.254,1793.88 907.321,1791.82 909.866,1791.82ZM944.657,1791.4C947.202,1791.4 949.268,1793.47 949.268,1796.02C949.268,1798.56 947.202,1800.63 944.657,1800.63C942.112,1800.63 940.046,1798.56 940.046,1796.02C940.046,1793.47 942.112,1791.4 944.657,1791.4ZM896.345,1776.76C898.439,1778.32 897.914,1782.57 895.173,1786.25C892.432,1789.93 888.507,1791.65 886.413,1790.09C884.319,1788.53 884.844,1784.28 887.585,1780.6C890.325,1776.92 894.251,1775.2 896.345,1776.76ZM924.935,1768.27C928.344,1768.27 931.111,1771.03 931.111,1774.44C931.111,1777.85 928.344,1780.62 924.935,1780.62C921.526,1780.62 918.759,1777.85 918.759,1774.44C918.759,1771.03 921.526,1768.27 924.935,1768.27Z" style="fill:rgb(83,205,83);"/>
            </g>
        </g>
    </g>
</svg>
